<svg height="511pt" viewBox="0 0 511 511.99979" width="511pt" xmlns="http://www.w3.org/2000/svg"><path d="m492.558594 15.800781v481.199219h-251.878906v-413.101562l126.261718-34.136719zm0 0" fill="#1b6aa6"/><path d="m492.558594 15.804688v481.195312h-125.621094v-447.238281zm0 0" fill="#173755"/><path d="m492.558594 15.800781v63.570313l-125.617188 33.957031-126.261718 34.132813v-63.5625l126.261718-34.136719zm0 0" fill="#fff49c"/><path d="m492.558594 15.800781v63.570313l-125.617188 33.957031v-63.566406zm0 0" fill="#fee276"/><path d="m501.40625 29.484375-134.46875 36.359375-140.21875 37.910156c-1.308594.347656-2.628906.519532-3.917969.519532-6.613281 0-12.671875-4.402344-14.472656-11.089844-2.167969-8 2.5625-16.230469 10.5625-18.390625l148.046875-40.03125 126.640625-34.238281c8-2.160157 16.238281 2.570312 18.398437 10.558593 2.160157 8-2.570312 16.242188-10.570312 18.402344zm0 0" fill="#d9eeff"/><path d="m501.40625 92.511719-134.46875 36.359375-140.21875 37.910156c-1.308594.351562-2.628906.519531-3.917969.519531-6.613281 0-12.671875-4.398437-14.472656-11.089843-2.167969-7.988282 2.5625-16.230469 10.5625-18.390626l148.046875-40.027343 126.640625-34.242188c8-2.160156 16.238281 2.570313 18.398437 10.570313 2.160157 7.992187-2.570312 16.230468-10.570312 18.390625zm0 0" fill="#d9eeff"/><path d="m306.066406 237.167969c8.285156 0 15-6.714844 15-15v-30.371094c0-8.285156-6.714844-15-15-15s-15 6.714844-15 15v30.371094c0 8.285156 6.714844 15 15 15zm0 0" fill="#fff"/><path d="m381.738281 191.800781v30.371094c0 8.210937-6.609375 14.890625-14.800781 14.988281-.070312.011719-.128906.011719-.199219.011719-8.289062 0-15-6.71875-15-15v-30.371094c0-8.289062 6.710938-15 15-15 .070313 0 .128907 0 .199219.011719 8.191406.097656 14.800781 6.769531 14.800781 14.988281zm0 0" fill="#fff"/><path d="m427 237.167969c8.285156 0 15-6.714844 15-15v-30.371094c0-8.285156-6.714844-15-15-15s-15 6.714844-15 15v30.371094c0 8.285156 6.714844 15 15 15zm0 0" fill="#d9eeff"/><path d="m321.1875 372.179688v124.820312h-30v-124.820312c0-8.289063 6.71875-15 15-15s15 6.710937 15 15zm0 0" fill="#fff49c"/><path d="m381.738281 372.179688v124.820312h-30v-124.820312c0-8.289063 6.710938-15 15-15 .070313 0 .128907 0 .199219.011718 8.191406.097656 14.800781 6.769532 14.800781 14.988282zm0 0" fill="#fff49c"/><path d="m442.117188 372.179688v124.820312h-30v-124.820312c0-8.289063 6.722656-15 15-15 8.289062 0 15 6.710937 15 15zm0 0" fill="#fee276"/><path d="m306.269531 257.203125c-8.285156 0-15 6.71875-15 15v30.375c0 8.28125 6.714844 15 15 15 8.28125 0 15-6.71875 15-15v-30.375c0-8.28125-6.714843-15-15-15zm0 0" fill="#fff"/><path d="m381.9375 272.199219v30.382812c0 8.277344-6.71875 15-15 15-8.289062 0-15-6.722656-15-15v-30.382812c0-8.277344 6.710938-15 15-15 8.28125 0 15 6.722656 15 15zm0 0" fill="#fff"/><path d="m427.199219 257.203125c-8.28125 0-15 6.71875-15 15v30.375c0 8.28125 6.71875 15 15 15 8.285156 0 15-6.71875 15-15v-30.375c0-8.28125-6.714844-15-15-15zm0 0" fill="#d9eeff"/><path d="m366.9375 237.160156v-60.347656c8.191406.097656 14.800781 6.769531 14.800781 14.988281v30.371094c0 8.210937-6.609375 14.890625-14.800781 14.988281zm0 0" fill="#d9eeff"/><path d="m381.738281 372.179688v124.820312h-14.800781v-139.808594c8.191406.097656 14.800781 6.769532 14.800781 14.988282zm0 0" fill="#fee276"/><path d="m381.9375 272.199219v30.382812c0 8.277344-6.71875 15-15 15v-60.382812c8.28125 0 15 6.722656 15 15zm0 0" fill="#d9eeff"/><path d="m201.277344 377.050781c-.757813 34.839844-28.617188 63.320313-63.417969 64.839844-.992187.039063-1.96875.058594-2.949219.058594-12.070312 0-23.730468-3.226563-33.941406-9.320313-11.039062 6.582032-23.789062 9.832032-36.890625 9.261719-34.800781-1.519531-62.660156-30-63.417969-64.839844-.550781-25.5 13.207032-48.570312 35.480469-60.230469 6.609375-30.039062 33.558594-52.058593 64.828125-52.058593s58.210938 22.019531 64.832031 52.058593c22.257813 11.660157 36.027344 34.730469 35.476563 60.230469zm0 0" fill="#00db7e"/><path d="m134.910156 441.949219c-12.070312 0-23.730468-3.230469-33.941406-9.320313v-167.867187c31.269531 0 58.210938 22.019531 64.832031 52.058593 22.257813 11.660157 36.027344 34.730469 35.476563 60.230469-.757813 34.839844-28.617188 63.320313-63.417969 64.839844-.992187.039063-1.96875.058594-2.949219.058594zm0 0" fill="#00a863"/><path d="m115.96875 369.351562v112.648438c0 8.28125-6.71875 15-15 15s-15-6.71875-15-15v-112.648438c0-8.289062 6.71875-15 15-15s15 6.710938 15 15zm0 0" fill="#a4ffb2"/><path d="m115.96875 369.351562v112.648438c0 8.28125-6.71875 15-15 15v-142.648438c8.28125 0 15 6.710938 15 15zm0 0" fill="#00ec87"/><path d="m512.496094 497c0 8.28125-6.71875 15-15 15h-481.996094c-8.28125 0-15-6.71875-15-15s6.71875-15 15-15h481.996094c8.28125 0 15 6.71875 15 15zm0 0" fill="#00db7e"/><path d="m511.976562 74.121094c2.160157 7.992187-2.570312 16.230468-10.570312 18.390625l-134.46875 36.359375v-31.078125l126.640625-34.242188c8-2.160156 16.238281 2.570313 18.398437 10.570313zm0 0" fill="#b0e3fc"/><path d="m501.40625 29.484375-134.46875 36.359375v-31.082031l126.640625-34.238281c8-2.160157 16.238281 2.570312 18.398437 10.558593 2.160157 8-2.570312 16.242188-10.570312 18.402344zm0 0" fill="#b0e3fc"/><path d="m512.496094 497c0 8.28125-6.71875 15-15 15h-396.527344v-30h396.527344c8.28125 0 15 6.71875 15 15zm0 0" fill="#00a863"/></svg>